Coordinates
version=1
nRows=17
nColumns=40
inDegrees=yes

Units are S.I. units (second, meters, Newtons, ...)
If the header above contains a line with 'inDegrees', this indicates whether rotational values are in degrees (yes) or radians (no).

endheader
time	pelvis_tilt	pelvis_list	pelvis_rotation	pelvis_tx	pelvis_ty	pelvis_tz	hip_flexion_r	hip_adduction_r	hip_rotation_r	knee_angle_r	knee_angle_r_beta	ankle_angle_r	subtalar_angle_r	mtp_angle_r	hip_flexion_l	hip_adduction_l	hip_rotation_l	knee_angle_l	knee_angle_l_beta	ankle_angle_l	subtalar_angle_l	mtp_angle_l	lumbar_extension	lumbar_bending	lumbar_rotation	arm_flex_r	arm_add_r	arm_rot_r	elbow_flex_r	pro_sup_r	wrist_flex_r	wrist_dev_r	arm_flex_l	arm_add_l	arm_rot_l	elbow_flex_l	pro_sup_l	wrist_flex_l	wrist_dev_l
      0.67000000	     -1.55414332	     -1.44257519	     -3.29868010	     -0.71939296	      0.99159316	      0.23596374	     22.91510395	      0.51577159	    -11.77584016	     11.91272291	      0.20791624	     -7.96195409	      0.00000000	      0.00000000	     -3.68927092	      1.32908944	    -12.21273588	     10.86777448	      0.18967845	      7.94441017	      0.00000000	      0.00000000	    -11.18736515	      0.06286334	     -2.47085427	    -12.58437900	      0.65835128	    -13.18260572	     60.25695445	     88.45396701	     27.38637933	     28.42586633	      5.33237666	     -7.51447769	     -2.09458422	     69.94608289	     89.22640127	     23.91162593	     28.20649110
      0.68000000	     -1.41131758	     -1.44928822	     -3.01748759	     -0.71202340	      0.99034765	      0.23638185	     22.61769379	      0.82368424	    -11.47508276	      9.43931433	      0.16474711	     -8.73178306	      0.00000000	      0.00000000	     -4.24238945	      1.27889913	    -12.15366808	     11.03857304	      0.19265944	      8.38992604	      0.00000000	      0.00000000	    -11.40034136	      0.14230397	     -2.59853899	    -12.69077690	      0.81189495	    -13.44531313	     60.27839350	     88.46593631	     27.54043669	     28.33718211	      5.60751043	     -7.48176567	     -1.33638498	     69.92600938	     89.22409754	     24.07375373	     28.29482244
      0.69000000	     -1.51126493	     -1.24092379	     -2.82316702	     -0.70474540	      0.98871870	      0.23697283	     22.66571489	      0.91182508	    -10.81514262	      7.29022736	      0.12723847	     -9.33753177	      0.00000000	      0.00000000	     -4.49808525	      1.44610397	    -12.07577359	     11.25066025	      0.19636106	      8.78090561	      0.00000000	      0.00000000	    -11.30834864	     -0.02461053	     -2.81248029	    -12.71974999	      0.97419939	    -13.56345157	     60.12944224	     88.47882500	     27.60369070	     28.32593381	      5.72739220	     -7.50742339	     -0.69551123	     69.93423506	     89.22424119	     24.22471817	     28.38019674
      0.70000000	     -1.62096145	     -1.03438221	     -2.60709143	     -0.69716414	      0.98705887	      0.23749769	     22.72480805	      0.93840408	    -10.17622596	      5.44107678	      0.09496470	     -9.56900749	      0.00000000	      0.00000000	     -4.74799181	      1.60199404	    -12.06376512	     11.49819096	      0.20068129	      9.14724791	      0.00000000	      0.00000000	    -11.16975659	     -0.15381757	     -3.11142000	    -12.75036940	      1.11926916	    -13.65578850	     59.96141920	     88.48482952	     27.63180668	     28.31986430	      5.73474460	     -7.51863859	     -0.09861597	     69.92170825	     89.23216214	     24.36118804	     28.46208401
      0.71000000	     -1.71485686	     -0.85687212	     -2.42470149	     -0.68955238	      0.98542807	      0.23809467	     22.79938884	      0.95543995	     -9.66698258	      3.89886842	      0.06804809	     -9.83943211	      0.00000000	      0.00000000	     -5.01475209	      1.72332729	    -12.05673257	     11.75823308	      0.20521988	      9.48339520	      0.00000000	      0.00000000	    -11.06653116	     -0.28276110	     -3.32719278	    -12.78535986	      1.23303392	    -13.72165457	     59.78836728	     88.49337837	     27.66320557	     28.30921877	      5.76215342	     -7.48076642	      0.45493629	     69.88912373	     89.24492236	     24.50833493	     28.56128463
      0.72000000	     -1.77431347	     -0.72782210	     -2.24808728	     -0.68195142	      0.98396479	      0.23867820	     22.87378621	      0.96664298	     -9.15800155	      2.70319119	      0.04717959	    -10.17468648	      0.00000000	      0.00000000	     -5.30426128	      1.78949328	    -12.01734243	     12.05120174	      0.21033315	      9.80407793	      0.00000000	      0.00000000	    -11.01861537	     -0.34620702	     -3.53717796	    -12.78651510	      1.33933584	    -13.81338046	     59.58565107	     88.50116150	     27.70018245	     28.28703294	      5.80153204	     -7.43392953	      1.03508534	     69.74134915	     89.24681577	     24.69731469	     28.71231712
      0.73000000	     -1.67989607	     -0.69022720	     -2.10979043	     -0.67450003	      0.98269811	      0.23924586	     22.85030656	      1.03072974	     -8.89402516	      1.91011099	      0.03333773	    -10.52666463	      0.00000000	      0.00000000	     -5.75748642	      1.76648742	    -11.99764292	     12.34157899	      0.21540119	     10.13620759	      0.00000000	      0.00000000	    -11.20620013	     -0.31691762	     -3.16536890	    -13.06954030	      1.54750341	    -14.48038709	     59.72235417	     88.51981538	     28.01077439	     28.07813378	      6.38422769	     -7.25429595	      2.12137215	     69.13438162	     89.24312662	     25.93102874	     29.39469085
      0.74000000	     -1.72629229	     -0.57934404	     -2.00379304	     -0.66661104	      0.98137753	      0.23994333	     23.00220226	      1.00573899	     -8.73496480	      1.51804349	      0.02649486	    -10.45387436	      0.00000000	      0.00000000	     -6.08490084	      1.80824823	    -12.05264452	     12.62020335	      0.22026410	     10.29459527	      0.00000000	      0.00000000	    -11.16117600	     -0.35772738	     -3.39782238	    -13.03432858	      1.61083624	    -14.47370030	     59.49382598	     88.52902342	     28.01989293	     28.10351382	      6.27390118	     -7.15242687	      2.48650161	     68.98685993	     89.27132266	     26.05125667	     29.47130904
      0.75000000	     -1.75639489	     -0.50435456	     -1.89179648	     -0.65861272	      0.98019040	      0.24067631	     23.13606524	      0.98359473	     -8.67432853	      1.40437003	      0.02451088	    -10.45892263	      0.00000000	      0.00000000	     -6.41823056	      1.80239140	    -12.04234131	     12.94102201	      0.22586344	     10.44640410	      0.00000000	      0.00000000	    -11.13355298	     -0.35650879	     -3.60854567	    -13.01109189	      1.66364065	    -14.47243632	     59.26392580	     88.53488831	     28.02938647	     28.12326124	      6.17199669	     -7.03868144	      2.87340429	     68.75436701	     89.28310985	     26.20457629	     29.60396824
      0.76000000	     -1.79977488	     -0.52867293	     -1.61424927	     -0.65055901	      0.97905134	      0.24118778	     23.24891552	      0.97371225	     -9.08216556	      1.48794953	      0.02596962	    -10.49361199	      0.00000000	      0.00000000	     -6.67482185	      1.65623671	    -11.77776892	     13.40388180	      0.23394187	     10.70526403	      0.00000000	      0.00000000	    -11.10276702	     -0.21400850	     -3.76895388	    -13.10877279	      1.72152473	    -14.61319729	     59.14257654	     88.52374657	     28.06460929	     28.11584073	      6.23550349	     -6.90364692	      3.52130728	     68.34000769	     89.28080426	     26.79759550	     30.08580880
      0.77000000	     -1.67119536	     -0.61075561	     -1.44956259	     -0.64224826	      0.97826073	      0.24183727	     23.14895589	      1.04042314	     -9.36613530	      1.77577686	      0.03099315	    -10.57956749	      0.00000000	      0.00000000	     -7.20340368	      1.47769173	    -11.61775718	     13.70260049	      0.23915549	     10.71204125	      0.00000000	      0.00000000	    -11.26697661	     -0.02811889	     -3.69911497	    -13.26737459	      1.81583675	    -14.96730251	     59.12344612	     88.54797057	     28.20381857	     28.09529190	      6.36104304	     -6.63702984	      3.95241728	     67.80094681	     89.29307981	     28.76354417	     30.72001132
      0.78000000	     -1.66758619	     -0.59664924	     -1.40491918	     -0.63351364	      0.97742950	      0.24277631	     23.13759042	      1.04329301	     -9.41144042	      2.18692670	      0.03816907	    -10.73717704	      0.00000000	      0.00000000	     -7.63411018	      1.39263686	    -11.58335227	     13.97781599	      0.24395891	     10.67404513	      0.00000000	      0.00000000	    -11.20497845	      0.04708458	     -3.87196875	    -13.31904433	      1.83654437	    -14.95569750	     58.94707150	     88.55261010	     28.20122294	     28.11272798	      6.06129779	     -6.45298199	      4.12331873	     67.47460048	     89.30503792	     28.79781156	     30.79560964
      0.79000000	     -1.61142690	     -0.69415822	     -1.29812268	     -0.62497571	      0.97689189	      0.24348483	     23.13097369	      1.09212688	     -9.76391769	      2.91242714	      0.05083144	    -10.96031316	      0.00000000	      0.00000000	     -8.04389732	      1.17859911	    -11.48366239	     14.38629258	      0.25108817	     10.54565648	      0.00000000	      0.00000000	    -11.25307583	      0.26132103	     -4.03084380	    -13.27925619	      1.79204194	    -14.91980440	     58.64343963	     88.56259885	     28.19827353	     28.15202441	      5.88552858	     -6.20377001	      4.34202868	     67.01451171	     89.33421146	     28.88727945	     30.95426361
      0.80000000	     -1.50043328	     -1.03147512	     -0.80921191	     -0.61590684	      0.97650204	      0.24388733	     22.93892225	      1.23843462	    -10.93008445	      3.63341724	      0.06341509	    -11.15609331	      0.00000000	      0.00000000	     -8.48088393	      0.62760604	    -11.00344019	     14.89820882	      0.26002280	     10.52660465	      0.00000000	      0.00000000	    -11.32189563	      0.79277560	     -4.33074797	    -13.46796288	      1.76586256	    -15.01763111	     58.58740889	     88.54633412	     28.17847065	     28.21060548	      5.76845683	     -5.95071917	      4.75189665	     66.46392496	     89.33726958	     29.36270803	     31.38232680
      0.81000000	     -1.44373579	     -1.11883644	     -0.76419395	     -0.60681810	      0.97620163	      0.24491120	     22.80752098	      1.29787978	    -10.94830874	      4.37524429	      0.07636242	    -11.54689471	      0.00000000	      0.00000000	     -8.92748318	      0.41144115	    -10.81486409	     15.27793844	      0.26665033	     10.26227134	      0.00000000	      0.00000000	    -11.30008712	      0.98398187	     -4.44972805	    -13.51123565	      1.75453771	    -15.03605391	     58.35847854	     88.56187632	     28.17108751	     28.24018273	      5.44657312	     -5.71559982	      4.85729562	     65.98486703	     89.35789697	     29.45148701	     31.49441450
      0.82000000	     -1.36834876	     -1.29474391	     -0.66135182	     -0.59758734	      0.97612691	      0.24581302	     22.64661143	      1.40810866	    -11.22137516	      5.20856063	      0.09090653	    -11.99291062	      0.00000000	      0.00000000	     -9.34771191	      0.07746376	    -10.64538651	     15.74947460	      0.27488019	      9.84285001	      0.00000000	      0.00000000	    -11.30845761	      1.29361391	     -4.53174510	    -13.57184336	      1.67934251	    -15.04312105	     58.11729753	     88.57197547	     28.16574705	     28.28344385	      5.14705779	     -5.42840508	      4.96017001	     65.43221123	     89.36637643	     29.57742067	     31.64915674
      0.83000000	     -1.19365673	     -1.78428899	     -0.24375969	     -0.58788299	      0.97637217	      0.24642739	     22.23358886	      1.72873502	    -12.22991939	      5.86675805	      0.10239424	    -12.58961454	      0.00000000	      0.00000000	     -9.82507042	     -0.67607486	    -10.32293326	     16.33109132	      0.28503131	      9.41972851	      0.00000000	      0.00000000	    -11.37650208	      2.00160133	     -4.72174046	    -13.79947570	      1.60713363	    -15.15987537	     58.04452738	     88.56290888	     28.15229881	     28.38506112	      4.91890112	     -5.09175087	      5.18409993	     64.73427262	     89.36983677	     30.14024689	     31.96571263
